<svg xmlns="http://www.w3.org/2000/svg" width="48" height="48" viewBox="0 0 48 48">
  <defs>
    <style>
      .cls-1 {
        fill: #fff;
        fill-rule: evenodd;
      }
    </style>
  </defs>
  <path id="shareiconv2_1" data-name="shareiconv2 1" class="cls-1" d="M38.982,18a8.994,8.994,0,0,1-6.317-2.582l-14.729,7.49a8.931,8.931,0,0,1,.023,1.9l14.908,7.643a8.926,8.926,0,0,1,10.246-1.5A9.056,9.056,0,0,1,47.035,43.09a8.946,8.946,0,0,1-12.069,3.946,9.039,9.039,0,0,1-4.814-9.224L15.507,30.3a9,9,0,1,1-.3-12.742l14.82-7.536A9.016,9.016,0,1,1,38.982,18Z"/>
</svg>
